<?xml version="1.0" standalone="no"?>
<!DOCTYPE svg PUBLIC "-//W3C//DTD SVG 20010904//EN"
 "http://www.w3.org/TR/2001/REC-SVG-20010904/DTD/svg10.dtd">
<svg version="1.0" xmlns="http://www.w3.org/2000/svg"
 width="1080.000000pt" height="1080.000000pt" viewBox="0 0 1080.000000 1080.000000"
 preserveAspectRatio="xMidYMid meet">

<g transform="translate(0.000000,1080.000000) scale(0.100000,-0.100000)"
fill="#000000" stroke="none">
<path d="M0 5400 l0 -5400 5400 0 5400 0 0 5400 0 5400 -5400 0 -5400 0 0
-5400z m2969 546 c-10 -9 -89 -46 -89 -41 0 6 72 44 84 45 5 0 7 -2 5 -4z
m261 -53 c-7 -21 -23 -54 -36 -75 -39 -61 -170 -110 -287 -107 l-52 2 63 8
c170 22 261 80 302 193 15 42 24 24 10 -21z m-384 -15 c-15 -12 -37 -35 -47
-52 -10 -17 -19 -25 -19 -17 0 15 72 91 86 91 5 0 -4 -10 -20 -22z m1064 -508
l0 -430 -75 0 -75 0 0 291 c0 159 -3 288 -7 285 -5 -2 -60 -106 -123 -230
l-115 -226 -60 0 -60 0 -120 233 -120 232 -3 -292 -2 -293 -75 0 -75 0 2 357
3 356 59 14 c33 7 80 25 104 38 25 14 46 24 48 23 1 -2 56 -108 122 -237 l120
-235 132 264 c72 146 134 268 136 272 3 4 45 8 95 8 l89 0 0 -430z m730 365
l0 -65 -200 0 -200 0 0 -115 0 -115 180 0 180 0 0 -65 0 -65 -180 0 -180 0 0
-120 0 -120 200 0 200 0 0 -65 0 -65 -280 0 -280 0 0 430 0 430 280 0 280 0 0
-65z m508 -237 l202 -302 0 302 0 302 80 0 80 0 0 -430 0 -430 -80 0 -80 0
-197 296 -198 297 -3 -297 -2 -296 -80 0 -80 0 0 430 0 430 78 0 77 0 203
-302z m1132 237 l0 -65 -125 0 -125 0 0 -365 0 -365 -75 0 -75 0 0 365 0 365
-125 0 -125 0 0 65 0 65 325 0 325 0 0 -65z m680 0 l0 -65 -200 0 -200 0 0
-115 0 -115 180 0 180 0 0 -65 0 -65 -180 0 -180 0 0 -120 0 -120 200 0 200 0
0 -65 0 -65 -280 0 -280 0 0 430 0 430 280 0 280 0 0 -65z m741 -356 c85 -232
156 -425 157 -430 2 -5 -34 -9 -80 -9 l-83 0 -35 100 -35 100 -169 -2 -169 -3
-32 -95 -32 -95 -81 -3 c-45 -2 -82 0 -82 3 0 4 284 782 305 838 6 14 21 17
94 17 l87 0 155 -421z m-4934 349 c-3 -8 -6 -5 -6 6 -1 11 2 17 5 13 3 -3 4
-12 1 -19z m13 -114 c0 -2 -9 -4 -20 -4 -11 0 -20 4 -20 9 0 5 9 7 20 4 11 -3
20 -7 20 -9z m-29 -54 c5 0 9 7 9 15 0 26 26 17 53 -18 17 -23 23 -38 17 -48
-7 -10 -14 -3 -27 28 -10 24 -21 43 -26 43 -4 0 0 -17 9 -37 9 -21 18 -44 21
-50 7 -18 -7 -16 -29 4 -20 18 -25 4 -6 -15 7 -7 8 -12 2 -12 -16 0 -44 68
-43 103 1 23 3 26 6 10 2 -13 9 -23 14 -23z"/>
<path d="M7397 5446 c-31 -90 -57 -168 -57 -175 0 -7 37 -11 120 -11 66 0 120
2 120 4 0 11 -113 332 -120 339 -3 4 -32 -66 -63 -157z"/>
</g>
</svg>
